# xmcd
#
# Track frame offsets:
#	150
#	18700
#	37012
#	59142
#	80725
#	97972
#	117965
#	140075
#	160205
#	180072
#	198780
#	220350
#	240212
#	261057
#	281350
#	299617
#
# Disc length: 4264 seconds
#
# Revision: 1
# Processed by: cddbd v1.5.1PL0 Copyright (c) Steve Scherf et al.
# Submitted via: CDex 1.50Beta5
#
DISCID=e910a610
DTITLE=伍代夏子 - ヒット全曲集
DYEAR=1900
DGENRE=Other
TTITLE0=忍ぶ雨
TTITLE1=戻り川
TTITLE2=滝の白糸
TTITLE3=さざんかの宿
TTITLE4=浮草ぐらし
TTITLE5=雪酒場
TTITLE6=恋知りそめて
TTITLE7=水なし川
TTITLE8=乱れ花
TTITLE9=祝い酒
TTITLE10=待つ女
TTITLE11=ふたり酒
TTITLE12=憂き世川
TTITLE13=忍ぶ雨(セリフ入り)
TTITLE14=戻り川(カラオケ)
TTITLE15=忍ぶ雨(セリフ入り)(カラオケ)
EXTD=
EXTT0=
EXTT1=
EXTT2=
EXTT3=
EXTT4=
EXTT5=
EXTT6=
EXTT7=
EXTT8=
EXTT9=
EXTT10=
EXTT11=
EXTT12=
EXTT13=
EXTT14=
EXTT15=
PLAYORDER=
